<svg width="106" height="106" viewBox="0 0 106 106" fill="none" xmlns="http://www.w3.org/2000/svg">
<circle cx="53" cy="53" r="53" fill="#372839"/>
<path d="M51.1318 45.0078L51.4998 44.9978H66.4998C68.1598 44.9977 69.7569 45.6326 70.9637 46.7725C72.1704 47.9123 72.8954 49.4706 72.9898 51.1278L72.9998 51.4978V66.4978C73 68.1581 72.3647 69.7555 71.2245 70.9623C70.0843 72.1691 68.5255 72.8938 66.8678 72.9878L66.4998 72.9978H51.4998C49.8396 72.998 48.2422 72.3627 47.0354 71.2225C45.8286 70.0823 45.1038 68.5235 45.0098 66.8658L44.9998 66.4998V51.4998C44.9997 49.8396 45.635 48.2422 46.7752 47.0354C47.9154 45.8286 49.4742 45.1038 51.1318 45.0098V45.0078ZM66.4998 47.9978H51.4998C50.6215 47.9979 49.7752 48.3282 49.1291 48.9232C48.4829 49.5182 48.0841 50.3344 48.0118 51.2098L47.9998 51.4978V66.4978C47.9999 67.3765 48.3305 68.2231 48.9259 68.8693C49.5214 69.5155 50.3381 69.914 51.2138 69.9858L51.4998 69.9978H66.4998C67.3785 69.9978 68.2251 69.6672 68.8713 69.0718C69.5175 68.4763 69.916 67.6596 69.9878 66.7838L69.9998 66.4978V51.4978C69.9998 50.5696 69.6311 49.6793 68.9747 49.023C68.3183 48.3666 67.4281 47.9978 66.4998 47.9978ZM58.9998 50.9998C59.3977 50.9998 59.7792 51.1579 60.0605 51.4392C60.3418 51.7205 60.4998 52.102 60.4998 52.4998V57.4958H65.4998C65.8977 57.4958 66.2792 57.6539 66.5605 57.9352C66.8418 58.2165 66.9998 58.598 66.9998 58.9958C66.9998 59.3937 66.8418 59.7752 66.5605 60.0565C66.2792 60.3378 65.8977 60.4958 65.4998 60.4958H60.4998V65.4998C60.4998 65.8977 60.3418 66.2792 60.0605 66.5605C59.7792 66.8418 59.3977 66.9998 58.9998 66.9998C58.602 66.9998 58.2205 66.8418 57.9392 66.5605C57.6579 66.2792 57.4998 65.8977 57.4998 65.4998V60.4958H52.4998C52.102 60.4958 51.7205 60.3378 51.4392 60.0565C51.1579 59.7752 50.9998 59.3937 50.9998 58.9958C50.9998 58.598 51.1579 58.2165 51.4392 57.9352C51.7205 57.6539 52.102 57.4958 52.4998 57.4958H57.4998V52.4998C57.4998 52.102 57.6579 51.7205 57.9392 51.4392C58.2205 51.1579 58.602 50.9998 58.9998 50.9998ZM60.1638 37.4658L60.2678 37.8198L61.6538 42.9958H58.5478L57.3718 38.5958C57.253 38.1516 57.0478 37.7352 56.768 37.3703C56.4881 37.0054 56.1391 36.6993 55.7409 36.4693C55.3427 36.2394 54.9031 36.0902 54.4471 36.0302C53.9912 35.9702 53.528 36.0007 53.0838 36.1198L38.5958 40.0038C37.7501 40.2306 37.0201 40.7662 36.5499 41.5049C36.0796 42.2435 35.9034 43.1316 36.0558 43.9938L36.1198 44.2898L40.0038 58.7778C40.186 59.4586 40.5695 60.0686 41.104 60.5279C41.6386 60.9871 42.2994 61.2743 42.9998 61.3518V64.3638C41.6995 64.2863 40.4524 63.8202 39.42 63.0257C38.3877 62.2312 37.6177 61.145 37.2098 59.9078L37.1058 59.5558L33.2238 45.0658C32.7938 43.4626 32.9935 41.7556 33.7819 40.2948C34.5703 38.8341 35.8876 37.7303 37.4638 37.2098L37.8198 37.1058L52.3078 33.2238C53.9111 32.7938 55.6181 32.9935 57.0788 33.7819C58.5396 34.5703 59.6434 35.8876 60.1638 37.4638V37.4658Z" fill="#908294"/>
</svg>
