<svg width="106" height="106" viewBox="0 0 106 106" fill="none" xmlns="http://www.w3.org/2000/svg">
<circle cx="53" cy="53" r="53" fill="#372839"/>
<g clip-path="url(#clip0_4290_400)">
<path d="M36.5 39.5C36.1022 39.5 35.7206 39.342 35.4393 39.0607C35.158 38.7794 35 38.3978 35 38C35 37.6022 35.158 37.2206 35.4393 36.9393C35.7206 36.658 36.1022 36.5 36.5 36.5H69.5C69.8978 36.5 70.2794 36.658 70.5607 36.9393C70.842 37.2206 71 37.6022 71 38C71 38.3978 70.842 38.7794 70.5607 39.0607C70.2794 39.342 69.8978 39.5 69.5 39.5H36.5ZM42.5 33.5C42.1022 33.5 41.7206 33.342 41.4393 33.0607C41.158 32.7794 41 32.3978 41 32C41 31.6022 41.158 31.2206 41.4393 30.9393C41.7206 30.658 42.1022 30.5 42.5 30.5H63.5C63.8978 30.5 64.2794 30.658 64.5607 30.9393C64.842 31.2206 65 31.6022 65 32C65 32.3978 64.842 32.7794 64.5607 33.0607C64.2794 33.342 63.8978 33.5 63.5 33.5H42.5ZM29 68C29 69.1935 29.4741 70.3381 30.318 71.182C31.1619 72.0259 32.3065 72.5 33.5 72.5H72.5C73.6935 72.5 74.8381 72.0259 75.682 71.182C76.5259 70.3381 77 69.1935 77 68V47C77 45.8065 76.5259 44.6619 75.682 43.818C74.8381 42.9741 73.6935 42.5 72.5 42.5H33.5C32.3065 42.5 31.1619 42.9741 30.318 43.818C29.4741 44.6619 29 45.8065 29 47V68ZM33.5 69.5C33.1022 69.5 32.7206 69.342 32.4393 69.0607C32.158 68.7794 32 68.3978 32 68V47C32 46.6022 32.158 46.2206 32.4393 45.9393C32.7206 45.658 33.1022 45.5 33.5 45.5H72.5C72.8978 45.5 73.2794 45.658 73.5607 45.9393C73.842 46.2206 74 46.6022 74 47V68C74 68.3978 73.842 68.7794 73.5607 69.0607C73.2794 69.342 72.8978 69.5 72.5 69.5H33.5Z" fill="#908294"/>
</g>
<defs>
<clipPath id="clip0_4290_400">
<rect width="48" height="48" fill="white" transform="translate(29 29)"/>
</clipPath>
</defs>
</svg>
