<svg width="309" height="24" fill="none" xmlns="http://www.w3.org/2000/svg"><path fill-rule="evenodd" clip-rule="evenodd" d="M78.775 18.25c1.83 0 3.506-.8 4.675-2 .254-.3.813-.85.763-.75l3.913 4.15A12.235 12.235 0 0 1 78.724 24c-6.76 0-12.198-5.35-12.198-12S71.965 0 78.725 0c3.608 0 6.86 1.55 9.097 4l-3.913 4.15-.915-.9a6.29 6.29 0 0 0-4.218-1.6c-3.507 0-6.404 2.8-6.404 6.3 0 3.45 2.846 6.3 6.404 6.3ZM229.31 23.6c1.829 0 3.1-1.25 3.1-3.05 0-1.75-1.271-2.95-3.1-3-1.779 0-3.05 1.25-3.05 3 0 1.8 1.271 3.05 3.05 3.05Zm-99.561-7.25c-1.169 1.2-2.847 2-4.676 2-3.558 0-6.404-2.85-6.404-6.3 0-3.5 2.897-6.3 6.404-6.3 1.626 0 3.1.6 4.218 1.6l.915.9L134.171 4c-2.236-2.45-5.489-4-9.097-4-6.76 0-12.198 5.35-12.198 12s5.438 12 12.198 12c3.812 0 7.166-1.7 9.402-4.35l-3.913-4.15s-.559.55-.813.85Zm116.688 1.9c1.829 0 3.506-.8 4.675-2 .254-.3.813-.85.763-.75l3.913 4.15a12.234 12.234 0 0 1-9.402 4.35c-6.76 0-12.198-5.35-12.198-12s5.438-12 12.198-12c3.608 0 6.861 1.55 9.097 4l-3.913 4.15-.915-.9a6.29 6.29 0 0 0-4.218-1.6c-3.507 0-6.404 2.8-6.404 6.3 0 3.45 2.846 6.3 6.404 6.3ZM16.466 11.5c2.084-.9 3.609-2.45 3.609-5.15V6.3c0-1.6-.56-2.8-1.525-3.7C17.178 1.2 15.145.5 12.197.5H0v23h12.248c5.59 0 8.843-2.4 8.843-6.35v-.05c0-3.15-1.779-4.7-4.625-5.6Zm-9.96-5.9h4.217c1.932 0 2.948.7 2.948 1.95v.05c0 1.35-1.118 2-3.1 2H6.505v-4Zm8.13 10.7c0 1.35-1.117 2.1-3.1 2.1h-5.03v-4.25h4.929c2.185 0 3.151.8 3.151 2.05v.1h.05ZM23.125.5h6.505v17.45h10.52v5.55H23.125V.5Zm129.241 8.6h-8.334V.5h-6.506v23.05l6.506-.05v-8.75h8.334v8.75h6.506V.5h-6.506v8.6ZM171.627.5h6.2l9.911 23h-6.912l-1.677-4.1h-8.945l-1.677 4.1h-6.759l9.859-23Zm2.999 7.5-2.592 6.5h5.184L174.626 8ZM197.14.5h-6.505v23.05h6.505V.5Zm18.804 12.2V.55h6.506v23h-5.743L206.695 10.9v12.65h-6.506V.5l6.099.05 9.656 12.15ZM112.978.5h-7.674l-8.08 9.35V.5h-6.506v23.05h6.505V17.6l2.389-2.6 6.556 8.55h7.725L103.83 10.4l9.148-9.9ZM40.658 12c0-6.65 5.438-12 12.197-12 6.709 0 12.198 5.35 12.198 12s-5.438 12-12.198 12c-6.76 0-12.197-5.35-12.197-12Zm5.794 0c0 3.45 2.846 6.3 6.403 6.3 3.558 0 6.404-2.8 6.404-6.3 0-3.45-2.846-6.3-6.404-6.3-3.506 0-6.403 2.8-6.403 6.3ZM268.545 0c-6.759 0-12.197 5.35-12.197 12s5.438 12 12.197 12c6.76 0 12.198-5.35 12.198-12s-5.438-12-12.198-12Zm0 18.3c-3.557 0-6.403-2.85-6.403-6.3 0-3.5 2.897-6.3 6.403-6.3 3.558 0 6.404 2.85 6.404 6.3.051 3.5-2.846 6.3-6.404 6.3Zm34.356-8.45-4.675 11.3h-4.524l-4.675-11.3v13.6h-6.099V.5h7.42l5.642 12.7L301.631.5H309v22.95h-6.099V9.85Z" fill="#896E6E"/></svg>