<svg width="178" height="29" fill="none" xmlns="http://www.w3.org/2000/svg"><g clip-path="url(#a)" fill="#896E6E"><path d="M15.136.532h16.633c-.01.216-.086.424-.218.597-.563.948-1.07 1.934-1.623 2.882-.783 1.36-1.515 2.746-2.31 4.101-.504.976-1.073 1.92-1.61 2.88H16.31c-.169 0-.336.008-.505.017-.141.365-.375.684-.563 1.027-.247.392-.447.81-.69 1.203-.258.528-.614 1-.873 1.526-.535.891-1.035 1.796-1.558 2.697-.546.921-1.08 1.855-1.602 2.802-.221.335-.425.681-.61 1.037-1.094 1.868-2.152 3.752-3.247 5.619-.093.2-.216.386-.364.552-1.872-.012-3.744 0-5.616 0-.23.004-.46.036-.683.094 0-.508.346-.916.58-1.343.282-.573.657-1.105.94-1.68 2.244-3.94 4.464-7.893 6.7-11.836.508-.857.943-1.73 1.452-2.57.637-1.106 1.23-2.236 1.892-3.329.211-.457.496-.876.728-1.322.825-1.44 1.634-2.89 2.456-4.33.098-.226.228-.436.388-.624Z"/><path d="M34.41 6.333c1.107-1.9 2.177-3.82 3.3-5.71h6.009c.087.003.174.017.259.04-.2.296-.368.611-.544.92a2976.582 2976.582 0 0 0-4.334 7.66c-.605 1.041-1.168 2.105-1.782 3.14l-.06.02-.012.13c-2.825 4.973-5.64 9.95-8.446 14.93-5.515.006-11.031.006-16.548 0 .314-.643.686-1.258 1.035-1.883 1.571-2.835 3.183-5.645 4.731-8.48 3.39-.005 6.778-.005 10.167 0 2.093-3.578 4.141-7.183 6.219-10.767h.006ZM96.415.549V27.79h4.81V8.635l8.774 12.616 8.704-12.916V27.79h4.95V.55h-5.325l-8.294 12.575L101.647.55h-5.232ZM73.915 7.574h3.143V28.02h-3.143V7.574ZM73.645 0h3.684v3.43h-3.684V0ZM83.065 1.716h3.285v5.859h6.475v2.855H86.35v12.146c-.006.468.105.93.322 1.347.556 1.036 2.066 2.265 6.153.829v2.647s-3.73 2.072-7.109.185c0 0-1.678-.7-2.383-3.059a6.766 6.766 0 0 1-.268-1.944V10.384l-2.769.046V7.575h2.792l-.023-5.86ZM128.721.549v27.426h20.88v-4.42h-15.789v-7.277h13.913v-4.351h-13.937v-6.93h15.65V.55h-20.717ZM151.561.549h5.947l6.827 9.629 6.774-9.63h5.948l-9.713 13.376 10.318 14.027h-6.264l-7.039-10.244-7.379 10.268h-5.947l10.17-13.93L151.561.55ZM64.295 13.745s4.599-1.703 4.317-6.607c0 0-.038-4.716-5.45-6.172-.899-.237-1.827-.354-2.758-.349H47.426l.035 27.243h13.972s8.176-.173 8.752-7.322c0 0 .585-4.997-5.89-6.793ZM50.78 3.43h8.283c6.498-.022 6.31 4.468 6.31 4.468.098 5.122-5.865 5.018-5.865 5.018H50.78V3.43Zm10.135 21.55H50.781v-9.484h9.69c6.498-.024 6.311 4.466 6.311 4.466.097 5.122-5.866 5.019-5.866 5.019Z"/></g><defs><clipPath id="a"><path fill="#fff" d="M0 0h177.662v28.377H0z"/></clipPath></defs></svg>