<svg width="149" height="33" fill="none" xmlns="http://www.w3.org/2000/svg"><path fill-rule="evenodd" clip-rule="evenodd" d="M11.596 28.84a8.707 8.707 0 0 0 3.25-.618c.01.02 2.08 3.284 2.109 3.306C15.081 32.55 13.123 33 10.983 33 4.619 33 0 28.745 0 21.953c0-6.841 4.855-11.096 10.982-11.096 2.182 0 3.902.48 5.634 1.42-.191.322-1.974 3.394-1.98 3.407a8.48 8.48 0 0 0-3.23-.618c-3.771 0-6.693 2.44-6.693 6.887 0 4.208 2.828 6.887 6.883 6.887Zm16.05-17.983c6.269 0 10.794 4.497 10.794 11.096C38.44 28.505 33.915 33 27.646 33 21.425 33 16.9 28.506 16.9 21.953c0-6.6 4.525-11.096 10.746-11.096Zm0 4.066c-3.487 0-6.034 2.726-6.034 7.03 0 4.257 2.546 6.983 6.035 6.983 3.582 0 6.08-2.726 6.08-6.983 0-4.304-2.498-7.03-6.081-7.03Zm13.764 17.6V11.334h4.665v21.189H41.41Zm-.614-27.694c0-1.625 1.368-2.915 2.923-2.915 1.556 0 2.922 1.29 2.922 2.917 0 1.674-1.366 3.013-2.922 3.013-1.555 0-2.923-1.339-2.923-3.013v-.002Zm9.35 7.846c2.922-1.148 6.506-1.818 9.568-1.818 5.327 0 8.72 2.056 8.72 8.034v13.632h-4.618v-13.2c0-3.061-1.885-4.162-4.48-4.162-1.65 0-3.297.24-4.524.622v16.74h-4.666V12.675ZM72.342 0h4.665v11.91c.99-.527 2.922-1.053 4.76-1.053 6.034 0 10.557 3.92 10.557 10.713 0 6.839-4.476 11.43-12.206 11.43a22.905 22.905 0 0 1-7.776-1.386V0Zm4.665 28.506c.895.286 2.073.428 3.252.428 4.289 0 7.353-2.39 7.353-7.27 0-4.112-2.874-6.551-6.41-6.551-1.837 0-3.253.479-4.196 1.005v12.388Zm28.797-10.19c0-2.295-1.698-3.346-4.007-3.346-2.404 0-4.289.717-6.032 1.722v-4.114c1.837-1.05 4.193-1.721 6.787-1.721 4.57 0 7.822 1.912 7.822 7.22v14.015c-1.979.525-4.805.861-7.162.861-5.42 0-9.38-1.674-9.38-6.457 0-4.304 3.628-6.408 9.661-6.408h2.309l.002-1.771Zm0 4.927h-1.98c-3.253 0-5.373.958-5.373 3.11 0 2.2 1.98 3.06 4.807 3.06.708 0 1.698-.096 2.546-.24v-5.93Zm7.964 3.54c1.933 1.482 4.241 2.39 6.362 2.39 2.075 0 3.442-.716 3.442-2.39 0-1.723-1.226-2.344-3.911-3.061-4.337-1.004-6.176-2.773-6.176-6.456 0-4.305 3.206-6.41 7.447-6.41 2.357 0 4.242.527 5.985 1.626v4.353c-1.838-1.338-3.628-2.152-5.843-2.152-2.027 0-3.111 1.004-3.111 2.392 0 1.385.894 2.104 3.299 2.771 4.762 1.054 6.835 2.873 6.835 6.698 0 4.448-3.347 6.456-7.871 6.456-2.451 0-4.902-.668-6.457-1.721l-.001-4.495Zm20.716-3.778v.096c.283 3.777 3.486 5.833 6.738 5.833 2.876 0 4.951-.669 7.023-2.056v4.163C146.36 32.379 143.579 33 140.894 33c-6.505 0-10.935-4.208-10.935-10.903 0-6.744 4.335-11.239 10.086-11.239 6.079 0 8.955 3.969 8.955 9.754v2.394l-14.516-.001Zm10.132-3.062c-.093-3.3-1.695-5.116-4.712-5.116-2.687 0-4.667 1.914-5.279 5.118l9.991-.002Z" fill="#896E6E"/></svg>