<svg width="106" height="106" viewBox="0 0 106 106" fill="none" xmlns="http://www.w3.org/2000/svg">
<circle cx="53" cy="53" r="53" fill="#372839"/>
<path d="M71.6668 48.9997H70.3335V40.9997C70.3335 40.646 70.193 40.3069 69.943 40.0569C69.6929 39.8068 69.3538 39.6663 69.0002 39.6663H37.0002C36.6845 39.6715 36.3772 39.5644 36.133 39.3642C35.8888 39.164 35.7236 38.8836 35.6668 38.573V38.093C35.7236 37.7824 35.8888 37.502 36.133 37.3018C36.3772 37.1016 36.6845 36.9945 37.0002 36.9997H68.4402C68.7938 36.9997 69.1329 36.8592 69.383 36.6091C69.633 36.3591 69.7735 36.02 69.7735 35.6663C69.7735 35.3127 69.633 34.9736 69.383 34.7235C69.1329 34.4735 68.7938 34.333 68.4402 34.333H37.0002C35.9393 34.333 34.9219 34.7544 34.1718 35.5046C33.4216 36.2547 33.0002 37.2721 33.0002 38.333C32.9908 38.4929 32.9908 38.6531 33.0002 38.813V66.2397C33.0054 66.9576 33.152 67.6674 33.4316 68.3286C33.7111 68.9899 34.1182 69.5896 34.6296 70.0935C35.1409 70.5974 35.7465 70.9957 36.4118 71.2655C37.077 71.5354 37.789 71.6716 38.5068 71.6663H69.0002C69.3538 71.6663 69.6929 71.5259 69.943 71.2758C70.193 71.0258 70.3335 70.6866 70.3335 70.333V62.333H71.6668C72.0205 62.333 72.3596 62.1925 72.6097 61.9425C72.8597 61.6924 73.0002 61.3533 73.0002 60.9997V50.333C73.0002 49.9794 72.8597 49.6402 72.6097 49.3902C72.3596 49.1401 72.0205 48.9997 71.6668 48.9997ZM67.6668 68.9997H38.5068C37.7653 69.0068 37.0508 68.7209 36.519 68.204C35.9871 67.6871 35.6809 66.9812 35.6668 66.2397V42.173C36.0996 42.2984 36.55 42.3525 37.0002 42.333H67.6668V48.9997H58.3335C56.5654 48.9997 54.8697 49.702 53.6195 50.9523C52.3692 52.2025 51.6668 53.8982 51.6668 55.6663C51.6668 57.4344 52.3692 59.1301 53.6195 60.3804C54.8697 61.6306 56.5654 62.333 58.3335 62.333H67.6668V68.9997ZM70.3335 59.6663H58.3335C57.2726 59.6663 56.2552 59.2449 55.5051 58.4948C54.7549 57.7446 54.3335 56.7272 54.3335 55.6663C54.3335 54.6055 54.7549 53.5881 55.5051 52.8379C56.2552 52.0878 57.2726 51.6663 58.3335 51.6663H70.3335V59.6663Z" fill="#908294"/>
<path d="M59.6799 57.667C60.7845 57.667 61.6799 56.7716 61.6799 55.667C61.6799 54.5624 60.7845 53.667 59.6799 53.667C58.5754 53.667 57.6799 54.5624 57.6799 55.667C57.6799 56.7716 58.5754 57.667 59.6799 57.667Z" fill="#908294"/>
</svg>
